<?xml version="1.0" encoding="utf-8"?>
<svg width="736px" height="736px" viewBox="0 0 736 736" version="1.1" xmlns:xlink="http://www.w3.org/1999/xlink" xmlns="http://www.w3.org/2000/svg">
  <path d="M143.833 579.411C172.629 557.517 167.515 537.624 167.515 537.624C167.515 537.624 69.6205 460.602 67.2718 375.587C64.923 290.572 104.355 245.839 167.515 199.903C230.594 154.025 304.789 135.089 371.398 138.499C508.43 145.515 670.805 219.782 670.429 370.468C670.052 521.154 501.087 600.763 371.398 599.879C241.711 598.995 243.109 574.901 241.422 579.411C239.736 583.921 218.659 597.782 177.708 611.818C154.783 619.676 139.337 624.752 118.927 626.973C88.0245 630.336 61.3831 630.745 73.2183 625.464C85.0536 620.182 115.038 601.305 143.833 579.411Z" id="New-shape" fill="#FFFFFF" fill-rule="evenodd" stroke="#FFFFFF" stroke-width="1" />
  <path d="M17.1512 194.5C17.2442 15.9148 17.1512 19.6705 17.1512 19.6705L193 19.6705" id="TL-corner" fill="none" fill-rule="evenodd" stroke="#FFFFFF" stroke-width="24" />
  <path d="M193.002 718C15.1114 717.907 18.8525 718 18.8525 718L18.8525 541.465" id="New-shape-5" fill="none" fill-rule="evenodd" stroke="#FFFFFF" stroke-width="24" />
  <path d="M718 542.994C717.907 721.579 718 717.824 718 717.824L542.151 717.824" id="New-shape-6" fill="none" fill-rule="evenodd" stroke="#FFFFFF" stroke-width="24" />
  <path d="M542.145 18C720.036 18.0934 716.295 18 716.295 18L716.295 194.535" id="New-shape-4" fill="none" fill-rule="evenodd" stroke="#FFFFFF" stroke-width="24" />
</svg>